<svg version="1.1" id="Layer_1" xmlns="http://www.w3.org/2000/svg" xmlns:xlink="http://www.w3.org/1999/xlink" x="0px" y="0px"
	 width="100%" viewBox="0 0 120 120" enable-background="new 0 0 120 120" xml:space="preserve">
<path fill="#000000" opacity="1.000000" stroke="none" 
	d="
M121.000000,44.000000 
	C121.000000,70.000000 121.000000,95.499992 121.000000,121.000000 
	C81.000008,121.000000 41.000015,121.000000 1.000018,121.000000 
	C1.000012,81.000015 1.000012,41.000027 1.000006,1.000028 
	C40.999981,1.000019 80.999962,1.000019 120.999969,1.000009 
	C121.000000,15.166667 121.000000,29.333334 121.000000,44.000000 
M7.816852,83.627747 
	C11.406615,93.490234 16.963346,101.860825 25.477812,108.279816 
	C38.024448,117.738625 52.459583,119.866264 67.422897,118.840881 
	C82.284187,117.822495 94.670273,110.746796 104.428978,99.769402 
	C114.543800,88.391411 118.112236,74.590019 118.115784,59.405853 
	C118.121361,35.547813 102.991257,12.252800 78.452568,5.516449 
	C53.076077,-1.449899 27.075928,6.848095 13.072724,28.520849 
	C2.050131,45.580517 1.533296,63.981895 7.816852,83.627747 
z"/>
<path fill="#00773F" opacity="1.000000" stroke="none" 
	d="
M7.636239,83.274887 
	C1.533296,63.981895 2.050131,45.580517 13.072724,28.520849 
	C27.075928,6.848095 53.076077,-1.449899 78.452568,5.516449 
	C102.991257,12.252800 118.121361,35.547813 118.115784,59.405853 
	C118.112236,74.590019 114.543800,88.391411 104.428978,99.769402 
	C94.670273,110.746796 82.284187,117.822495 67.422897,118.840881 
	C52.459583,119.866264 38.024448,117.738625 25.477812,108.279816 
	C16.963346,101.860825 11.406615,93.490234 7.636239,83.274887 
M46.817276,109.855797 
	C56.944595,112.771683 66.954590,113.241035 76.905251,108.935822 
	C96.761879,100.344749 109.312332,85.853012 110.828232,63.952278 
	C112.991364,32.700737 86.068062,6.393678 53.747417,10.983435 
	C28.131248,14.621109 10.169531,37.680744 10.672953,62.231319 
	C11.103452,83.225624 24.083052,102.779099 46.817276,109.855797 
z"/>
<path fill="#000000" opacity="1.000000" stroke="none" 
	d="
M46.444252,109.698303 
	C24.083052,102.779099 11.103452,83.225624 10.672953,62.231319 
	C10.169531,37.680744 28.131248,14.621109 53.747417,10.983435 
	C86.068062,6.393678 112.991364,32.700737 110.828232,63.952278 
	C109.312332,85.853012 96.761879,100.344749 76.905251,108.935822 
	C66.954590,113.241035 56.944595,112.771683 46.444252,109.698303 
M33.996510,35.517078 
	C24.092243,46.647511 22.110395,59.757504 25.948057,73.504158 
	C31.064596,91.831787 49.549347,101.244583 69.438690,96.741997 
	C80.066116,94.336159 87.905777,88.551414 93.567314,79.190338 
	C98.256500,71.437004 98.188408,63.114922 97.970078,54.655632 
	C97.738480,45.682392 93.539612,38.246742 87.367790,32.339638 
	C72.530312,18.138573 46.092503,21.216429 33.996510,35.517078 
z"/>
<path fill="#007940" opacity="1.000000" stroke="none" 
	d="
M34.246925,35.265087 
	C46.092503,21.216429 72.530312,18.138573 87.367790,32.339638 
	C93.539612,38.246742 97.738480,45.682392 97.970078,54.655632 
	C98.188408,63.114922 98.256500,71.437004 93.567314,79.190338 
	C87.905777,88.551414 80.066116,94.336159 69.438690,96.741997 
	C49.549347,101.244583 31.064596,91.831787 25.948057,73.504158 
	C22.110395,59.757504 24.092243,46.647511 34.246925,35.265087 
M30.874399,73.430733 
	C32.968071,79.646255 36.801514,84.509300 42.235111,88.158974 
	C52.872158,95.303749 63.989849,96.237518 75.220322,90.008331 
	C87.200943,83.363060 93.753922,72.958168 94.007599,59.169201 
	C94.427582,36.339760 72.686256,21.163177 51.274555,29.109423 
	C33.752129,35.612289 25.251236,53.518673 30.874399,73.430733 
z"/>
<path fill="#00D956" opacity="1.000000" stroke="none" 
	d="
M30.731163,73.057358 
	C25.251236,53.518673 33.752129,35.612289 51.274555,29.109423 
	C72.686256,21.163177 94.427582,36.339760 94.007599,59.169201 
	C93.753922,72.958168 87.200943,83.363060 75.220322,90.008331 
	C63.989849,96.237518 52.872158,95.303749 42.235111,88.158974 
	C36.801514,84.509300 32.968071,79.646255 30.731163,73.057358 
M44.176537,54.342915 
	C56.747654,51.718254 68.884750,53.004299 80.772644,57.910011 
	C82.369942,58.569157 84.757660,57.312859 86.779366,56.943535 
	C85.880638,55.031479 85.488693,52.110413 84.004112,51.364765 
	C70.419792,44.541882 56.177822,42.987076 41.555779,47.552837 
	C40.224239,47.968613 39.488670,50.292984 38.476349,51.731052 
	C40.117561,52.651005 41.758774,53.570957 44.176537,54.342915 
M71.050446,59.301636 
	C66.957298,58.555592 62.879639,57.326424 58.766808,57.194618 
	C54.343636,57.052868 49.871128,57.829372 45.459984,58.476677 
	C44.615223,58.600636 43.373642,59.981171 43.369026,60.788017 
	C43.364124,61.644508 44.451172,62.847607 45.357380,63.282425 
	C46.479221,63.820721 47.927952,63.974976 49.196796,63.861786 
	C57.844738,63.090324 66.142319,64.348137 74.121155,67.786827 
	C75.180824,68.243523 76.414658,68.830215 77.455566,68.662010 
	C78.776566,68.448555 80.356873,67.798233 81.087288,66.797554 
	C81.476562,66.264229 80.638588,64.074623 79.785255,63.538197 
	C77.280296,61.963535 74.490288,60.842342 71.050446,59.301636 
M45.006893,70.059433 
	C44.496540,71.271263 43.986187,72.483093 43.475838,73.694923 
	C44.681091,73.996544 45.959743,74.724411 47.079849,74.531548 
	C55.176022,73.137451 62.944572,73.952797 70.621475,76.949440 
	C72.247833,77.584274 74.482582,76.660507 76.437019,76.454849 
	C75.241241,74.881546 74.379898,72.618042 72.794098,71.849670 
	C64.093788,67.634033 55.014397,66.522804 45.006893,70.059433 
M41.504456,61.586353 
	C41.504456,61.586353 41.444305,61.476433 41.504456,61.586353 
z"/>
<path fill="#007C40" opacity="1.000000" stroke="none" 
	d="
M43.788261,54.416912 
	C41.758774,53.570957 40.117561,52.651005 38.476349,51.731052 
	C39.488670,50.292984 40.224239,47.968613 41.555779,47.552837 
	C56.177822,42.987076 70.419792,44.541882 84.004112,51.364765 
	C85.488693,52.110413 85.880638,55.031479 86.779366,56.943535 
	C84.757660,57.312859 82.369942,58.569157 80.772644,57.910011 
	C68.884750,53.004299 56.747654,51.718254 43.788261,54.416912 
M52.461037,48.752541 
	C51.040649,48.943954 49.620266,49.135368 48.199879,49.326782 
	C48.236885,49.459126 48.273888,49.591473 48.310890,49.723816 
	C53.818272,49.723816 59.325653,49.723816 64.833031,49.723816 
	C64.833534,49.274479 64.834038,48.825146 64.834549,48.375809 
	C60.953308,48.375809 57.072067,48.375809 52.461037,48.752541 
z"/>
<path fill="#007C40" opacity="1.000000" stroke="none" 
	d="
M71.431183,59.422592 
	C74.490288,60.842342 77.280296,61.963535 79.785255,63.538197 
	C80.638588,64.074623 81.476562,66.264229 81.087288,66.797554 
	C80.356873,67.798233 78.776566,68.448555 77.455566,68.662010 
	C76.414658,68.830215 75.180824,68.243523 74.121155,67.786827 
	C66.142319,64.348137 57.844738,63.090324 49.196796,63.861786 
	C47.927952,63.974976 46.479221,63.820721 45.357380,63.282425 
	C44.451172,62.847607 43.364124,61.644508 43.369026,60.788017 
	C43.373642,59.981171 44.615223,58.600636 45.459984,58.476677 
	C49.871128,57.829372 54.343636,57.052868 58.766808,57.194618 
	C62.879639,57.326424 66.957298,58.555592 71.431183,59.422592 
z"/>
<path fill="#007D40" opacity="1.000000" stroke="none" 
	d="
M45.337700,69.896713 
	C55.014397,66.522804 64.093788,67.634033 72.794098,71.849670 
	C74.379898,72.618042 75.241241,74.881546 76.437019,76.454849 
	C74.482582,76.660507 72.247833,77.584274 70.621475,76.949440 
	C62.944572,73.952797 55.176022,73.137451 47.079849,74.531548 
	C45.959743,74.724411 44.681091,73.996544 43.475838,73.694923 
	C43.986187,72.483093 44.496540,71.271263 45.337700,69.896713 
z"/>
<path fill="#007C40" opacity="1.000000" stroke="none" 
	d="
M41.474380,61.531395 
	C41.444305,61.476433 41.504456,61.586353 41.474380,61.531395 
z"/>
<path fill="#000000" opacity="1.000000" stroke="none" 
	d="
M52.825935,48.564175 
	C57.072067,48.375809 60.953308,48.375809 64.834549,48.375809 
	C64.834038,48.825146 64.833534,49.274479 64.833031,49.723816 
	C59.325653,49.723816 53.818272,49.723816 48.310890,49.723816 
	C48.273888,49.591473 48.236885,49.459126 48.199879,49.326782 
	C49.620266,49.135368 51.040649,48.943954 52.825935,48.564175 
z"/>
</svg>